<svg id="Слой_1" data-name="Слой 1" xmlns="http://www.w3.org/2000/svg" viewBox="0 0 307.61 325.26"><defs><style>.cls-1,.cls-2{fill:none;stroke:#000;stroke-miterlimit:10;}.cls-1{stroke-linecap:round;stroke-width:5px;}.cls-2{stroke-width:4px;}</style></defs><title>роспись</title><path class="cls-1" d="M653.62,660.62c-77.64,53.32-73.75,11.68-70.32,2.59,11.17-29.6,57.7-58.72,110.3-75.06s127-10.66,124.59,37.79c-2.24,44.93-49.4,59.35-72.51,57.7-14.3-1-32.17-12.51-32.17-30.13s18.13-31.4,31.4-34" transform="translate(-579.34 -364.5)"/><path d="M752.11,543.73c15-7.5,28.51-17.22,41-28a107,107,0,0,0,8.85-8.42,59,59,0,0,0,7.27-9.39,27.9,27.9,0,0,0,2.44-5,8.18,8.18,0,0,0,.61-4.18.91.91,0,0,0-.36-.6,2.42,2.42,0,0,0-1-.29,11.7,11.7,0,0,0-4.51.68c-.41.13-.86.29-1.25.44s-.76.32-1.15.5a24.85,24.85,0,0,0-2.34,1.3,42.84,42.84,0,0,0-4.6,3.37,95.57,95.57,0,0,0-8.67,8.23c-5.54,5.9-10.77,12.26-15.79,18.79s-9.91,13.21-14.66,20-9.46,13.62-14.06,20.54-9.17,13.86-13.68,20.85c-2.24,3.46-4.56,7.08-7,10.56s-4.89,6.94-7.47,10.31q-7.71,10.11-16.21,19.54C693.9,629.24,688,635.26,681.8,641a250.28,250.28,0,0,1-40,31.05,143.29,143.29,0,0,1-22.66,11.37A84.82,84.82,0,0,1,607,687.1a48.28,48.28,0,0,1-12.55,1,51.21,51.21,0,0,0,12.17-2.49,85.62,85.62,0,0,0,11.43-4.72A148.88,148.88,0,0,0,639.13,668a231.2,231.2,0,0,0,19.31-15.45c6.16-5.49,12.18-11.14,17.92-17.07a357.38,357.38,0,0,0,31.83-37.74c2.4-3.33,4.76-6.69,7-10.09s4.43-6.85,6.67-10.44q6.72-10.61,13.68-21.09t14.32-20.72c4.93-6.81,10-13.56,15.26-20.14a232,232,0,0,1,16.93-19.09,100.89,100.89,0,0,1,9.8-8.65,49.9,49.9,0,0,1,5.68-3.76,30.87,30.87,0,0,1,3.21-1.58c.57-.24,1.15-.46,1.75-.66s1.14-.36,1.73-.52a18.45,18.45,0,0,1,7.85-.59,9.34,9.34,0,0,1,4.66,2.16,8.27,8.27,0,0,1,2.6,4.78,12,12,0,0,1-.11,4.42,19.74,19.74,0,0,1-1.12,3.63,31.69,31.69,0,0,1-3.41,6.06,65.36,65.36,0,0,1-8.69,9.85,105.94,105.94,0,0,1-9.85,8.2A206.44,206.44,0,0,1,775,533.3c-3.67,2.05-7.41,4-11.22,5.75S756.08,542.39,752.11,543.73Z" transform="translate(-579.34 -364.5)"/><path d="M878.58,387.27a31.27,31.27,0,0,0-9.25-4.33,41.32,41.32,0,0,0-10.07-1.47,68.06,68.06,0,0,0-20.2,3,134.26,134.26,0,0,0-19.24,7.37c-6.25,2.9-12.34,6.17-18.3,9.66a351.23,351.23,0,0,0-34.42,23.19c-11,8.38-21.34,17.7-31.8,26.68-5.16,4.55-10.48,9-15.37,13.68a118.94,118.94,0,0,0-13.1,15.26,103.9,103.9,0,0,0-10.14,17.29,79.43,79.43,0,0,0-3.58,9.29,60.69,60.69,0,0,0-2.26,9.57c-1,6.42-.64,13,1.81,18.68a20.82,20.82,0,0,0,5.3,7.39,24.39,24.39,0,0,0,8.15,4.68c6.11,2.21,13,2.47,19.85,2a116.48,116.48,0,0,0,20.43-3.77l.35,1q-4.9,2-10,3.51a94.42,94.42,0,0,1-10.38,2.46,63,63,0,0,1-10.76,1,41.79,41.79,0,0,1-11-1.36,29.33,29.33,0,0,1-10.33-5,27.07,27.07,0,0,1-7.51-9,29.56,29.56,0,0,1-2.2-5.43,35.82,35.82,0,0,1-1.22-5.65,50,50,0,0,1-.22-11.33,76.29,76.29,0,0,1,5.4-21.45,108.8,108.8,0,0,1,10.27-19.34,125.16,125.16,0,0,1,13.65-17.05,203.79,203.79,0,0,1,15.32-15c5.32-4.7,10.89-9.09,16.62-13.27s11.53-8.22,17.39-12.19A347.14,347.14,0,0,1,798.2,395.4c12.64-6.4,25.83-12,39.84-15.06a71.45,71.45,0,0,1,21.39-1.61,36.15,36.15,0,0,1,19.81,7.66Z" transform="translate(-579.34 -364.5)"/><path class="cls-1" d="M769.17,367S704.83,364,704.83,412s88,53.32,143,30.13c23-9.71,36.64-26.94,36.64-41.75,0-15.83-21.83-28-58.93-13.87" transform="translate(-579.34 -364.5)"/><path class="cls-2" d="M690.43,537.9S721,587.77,812.41,499" transform="translate(-579.34 -364.5)"/></svg>